<svg width="256" height="256" viewBox="0 0 256 256" fill="none" xmlns="http://www.w3.org/2000/svg">
<path d="M126.827 236.344C199.811 236.344 227.449 128.707 222.731 52.665C222.582 50.2616 220.98 48.2287 218.691 47.483C198.665 40.9611 150.517 26.3368 126.831 19.9727C103.139 26.3383 54.3308 40.9719 34.2243 47.4937C31.9337 48.2367 30.3319 50.2698 30.1836 52.6733C25.4895 128.722 53.8366 236.344 126.827 236.344Z" fill="#FFF668"/>
<path d="M126.827 236.344C53.8366 236.344 25.4895 128.722 30.1836 52.6733C30.3319 50.2698 31.9337 48.2367 34.2243 47.4937C54.3309 40.9719 103.139 26.3383 126.831 19.9727L126.827 236.344Z" fill="#FFBF1F"/>
<mask id="mask0_3940_51" style="mask-type:alpha" maskUnits="userSpaceOnUse" x="56" y="46" width="141" height="166">
<path d="M126.83 211.044C180.865 211.044 200.744 126.069 196.42 67.9486C184.086 63.6151 145.273 51.2123 126.833 46.0195C108.391 51.2128 69.0369 63.6209 56.7017 67.9548C52.3776 126.08 72.79 211.044 126.83 211.044Z" fill="#5C5A37"/>
</mask>
<g mask="url(#mask0_3940_51)">
<rect x="23.6562" y="21.8164" width="103.172" height="103.172" fill="#412AC0"/>
<rect x="126.812" y="21.8164" width="103.172" height="103.172" fill="#9D8EF1"/>
<rect x="23.6562" y="124.941" width="103.172" height="103.172" fill="#9D8EF1"/>
<rect x="126.812" y="124.941" width="103.172" height="103.172" fill="#634ED8"/>
</g>
</svg>
